<svg xmlns="http://www.w3.org/2000/svg" xmlns:xlink="http://www.w3.org/1999/xlink" width="38" height="50" viewBox="0 0 38 50"><defs><linearGradient id="a" x1="0.523" y1="-0.559" x2="0.5" y2="1.471" gradientUnits="objectBoundingBox"><stop offset="0" stop-color="#ff2424"/><stop offset="1" stop-color="#f54367"/></linearGradient><linearGradient id="b" x1="0.5" y1="0" y2="1.471" xlink:href="#a"/></defs><g transform="translate(1461 2463)"><path d="M0,0H3A0,0,0,0,1,3,0V20a0,0,0,0,1,0,0H3a3,3,0,0,1-3-3V0A0,0,0,0,1,0,0Z" transform="translate(-1456 -2443)" fill="#fff"/><path d="M2.815,0h0a0,0,0,0,1,0,0V9.852a0,0,0,0,1,0,0H0a0,0,0,0,1,0,0V2.815A2.815,2.815,0,0,1,2.815,0Z" transform="translate(-1447.63 -2439.056) rotate(90)" fill="#fff"/><path d="M0,0H3A0,0,0,0,1,3,0V6A0,0,0,0,1,3,6H3A3,3,0,0,1,0,3V0A0,0,0,0,1,0,0Z" transform="translate(-1436 -2429)" fill="#fff"/><path d="M2.875,4.034H0a4.61,4.61,0,0,1,9.147,0H6.215a1.766,1.766,0,0,0-3.34,0Z" transform="translate(-1441.964 -2433.332)" fill="#fff"/><path d="M0,0H2A0,0,0,0,1,2,0V6A0,0,0,0,1,2,6H2A2,2,0,0,1,0,4V0A0,0,0,0,1,0,0Z" transform="translate(-1448 -2429)" fill="#fff"/><path d="M2.875,4.034H0a4.61,4.61,0,0,1,9.147,0H6.215a1.766,1.766,0,0,0-3.34,0Z" transform="translate(-1448.297 -2433.332)" fill="#fff"/><path d="M0,0H3A0,0,0,0,1,3,0V3A0,0,0,0,1,3,3H3A3,3,0,0,1,0,0V0A0,0,0,0,1,0,0Z" transform="translate(-1442 -2429)" fill="#fff"/><g transform="translate(-1461 -2463.333)"><rect width="38" height="37" rx="8" transform="translate(0 13.333)" fill="url(#a)"/><path d="M2.951,16H.471A12.638,12.638,0,0,1,0,12.571,12.571,12.571,0,0,1,12.571,0h.858A12.572,12.572,0,0,1,26,12.571,12.638,12.638,0,0,1,25.53,16H23.048a10.287,10.287,0,0,0-9.7-13.713h-.7A10.287,10.287,0,0,0,2.951,16Z" transform="translate(6 0.333)" fill="url(#b)"/><circle cx="1.5" cy="1.5" r="1.5" transform="translate(28 15.333)" fill="#fff"/><circle cx="1.5" cy="1.5" r="1.5" transform="translate(6 15.333)" fill="#fff"/></g><g transform="translate(-1453.259 -2441.519)"><path d="M0,0H3A0,0,0,0,1,3,0V20a0,0,0,0,1,0,0H3a3,3,0,0,1-3-3V0A0,0,0,0,1,0,0Z" transform="translate(1.259 -0.481)" fill="#fff"/><path d="M2.815,0h0a0,0,0,0,1,0,0V9.852a0,0,0,0,1,0,0H0a0,0,0,0,1,0,0V2.815A2.815,2.815,0,0,1,2.815,0Z" transform="translate(9.852 3.87) rotate(90)" fill="#fff"/><g transform="translate(9.148 9.594)"><path d="M0,0H1.478A1.478,1.478,0,0,1,2.956,1.478v6a0,0,0,0,1,0,0h0A2.956,2.956,0,0,1,0,4.527V0A0,0,0,0,1,0,0Z" transform="translate(12.526 2.627)" fill="#fff"/><path d="M2.875,4.034H0a4.61,4.61,0,0,1,9.147,0H6.215a1.767,1.767,0,0,0-3.34,0Z" transform="translate(6.333 0)" fill="#fff"/><path d="M2.875,4.034H0a4.61,4.61,0,0,1,9.147,0H6.215a1.767,1.767,0,0,0-3.34,0Z" transform="translate(0 0)" fill="#fff"/><path d="M0,0H3.1a0,0,0,0,1,0,0V2.815a0,0,0,0,1,0,0H2.815A2.815,2.815,0,0,1,0,0V0A0,0,0,0,1,0,0Z" transform="translate(6.122 3.553)" fill="#fff"/><path d="M1.478,0h0A1.478,1.478,0,0,1,2.956,1.478v6a0,0,0,0,1,0,0h0A2.956,2.956,0,0,1,0,4.527V1.478A1.478,1.478,0,0,1,1.478,0Z" transform="translate(0 2.627)" fill="#fff"/></g></g></g></svg>