<svg xmlns="http://www.w3.org/2000/svg" xmlns:xlink="http://www.w3.org/1999/xlink" width="175" height="50" viewBox="0 0 175 50">
  <defs>
    <linearGradient id="linear-gradient" x1="0.523" y1="-0.559" x2="0.5" y2="1.471" gradientUnits="objectBoundingBox">
      <stop offset="0" stop-color="#ff2424"/>
      <stop offset="1" stop-color="#f54367"/>
    </linearGradient>
    <linearGradient id="linear-gradient-2" x1="0.5" y1="0" y2="1.471" xlink:href="#linear-gradient"/>
  </defs>
  <g id="Group_6517" data-name="Group 6517" transform="translate(-219 -23)">
    <text id="TrendMarket" transform="translate(266 63)" fill="#333" font-size="22" font-family="QanelasSoftDEMO-Medium, Qanelas Soft DEMO" font-weight="500" letter-spacing="0.05em"><tspan x="0" y="0">trendmarket</tspan></text>
    <g id="Group_6516" data-name="Group 6516">
      <g id="Group_6474" data-name="Group 6474" transform="translate(219 22.667)">
        <rect id="Rectangle_232" data-name="Rectangle 232" width="38" height="37" rx="8" transform="translate(0 13.333)" fill="url(#linear-gradient)"/>
        <path id="Subtraction_2" data-name="Subtraction 2" d="M2.951,16H.471A12.638,12.638,0,0,1,0,12.571,12.571,12.571,0,0,1,12.571,0h.858A12.572,12.572,0,0,1,26,12.571,12.638,12.638,0,0,1,25.53,16H23.048a10.287,10.287,0,0,0-9.7-13.713h-.7A10.287,10.287,0,0,0,2.951,16Z" transform="translate(6 0.333)" fill="url(#linear-gradient-2)"/>
        <circle id="Ellipse_1296" data-name="Ellipse 1296" cx="1.5" cy="1.5" r="1.5" transform="translate(28 15.333)" fill="#fff"/>
        <circle id="Ellipse_1303" data-name="Ellipse 1303" cx="1.5" cy="1.5" r="1.5" transform="translate(6 15.333)" fill="#fff"/>
      </g>
      <g id="Group_6475" data-name="Group 6475" transform="translate(226.741 44.481)">
        <path id="Rectangle_414" data-name="Rectangle 414" d="M0,0H3A0,0,0,0,1,3,0V20a0,0,0,0,1,0,0H3a3,3,0,0,1-3-3V0A0,0,0,0,1,0,0Z" transform="translate(1.259 -0.481)" fill="#fff"/>
        <path id="Rectangle_7315" data-name="Rectangle 7315" d="M2.815,0h0a0,0,0,0,1,0,0V9.852a0,0,0,0,1,0,0H0a0,0,0,0,1,0,0V2.815A2.815,2.815,0,0,1,2.815,0Z" transform="translate(9.852 3.87) rotate(90)" fill="#fff"/>
        <g id="Group_6454" data-name="Group 6454" transform="translate(9.148 9.594)">
          <path id="Rectangle_7318" data-name="Rectangle 7318" d="M0,0H1.478A1.478,1.478,0,0,1,2.956,1.478v6a0,0,0,0,1,0,0h0A2.956,2.956,0,0,1,0,4.527V0A0,0,0,0,1,0,0Z" transform="translate(12.526 2.627)" fill="#fff"/>
          <path id="Subtraction_6" data-name="Subtraction 6" d="M2.875,4.034H0a4.61,4.61,0,0,1,9.147,0H6.215a1.767,1.767,0,0,0-3.34,0Z" transform="translate(6.333 0)" fill="#fff"/>
          <path id="Subtraction_8" data-name="Subtraction 8" d="M2.875,4.034H0a4.61,4.61,0,0,1,9.147,0H6.215a1.767,1.767,0,0,0-3.34,0Z" transform="translate(0 0)" fill="#fff"/>
          <path id="Rectangle_7323" data-name="Rectangle 7323" d="M0,0H3.1a0,0,0,0,1,0,0V2.815a0,0,0,0,1,0,0H2.815A2.815,2.815,0,0,1,0,0V0A0,0,0,0,1,0,0Z" transform="translate(6.122 3.553)" fill="#fff"/>
          <path id="Rectangle_7326" data-name="Rectangle 7326" d="M1.478,0h0A1.478,1.478,0,0,1,2.956,1.478v6a0,0,0,0,1,0,0h0A2.956,2.956,0,0,1,0,4.527V1.478A1.478,1.478,0,0,1,1.478,0Z" transform="translate(0 2.627)" fill="#fff"/>
        </g>
      </g>
    </g>
  </g>
</svg>
