<svg xmlns="http://www.w3.org/2000/svg" width="103.794" height="88.785" viewBox="0 0 103.794 88.785">
  <g id="Group_6517" data-name="Group 6517" transform="translate(-813.103 -4019)">
    <path id="Path_6110" data-name="Path 6110" d="M50.17,6.91C36.982,7.156,27.8.493,21.441.613S1.8,4.635,2.352,33.874,20.935,67.066,27.927,66.936C60.66,66.324,73.529,6.473,50.17,6.91Z" transform="translate(861.286 4016.855) rotate(48)" fill="#fff"/>
    <g id="delivery-truck" transform="translate(854.897 3970.273)">
      <g id="Group_6478" data-name="Group 6478" transform="translate(0 68.867)">
        <g id="Group_6477" data-name="Group 6477" transform="translate(0 0)">
          <path id="Path_6111" data-name="Path 6111" d="M50.193,83.357h-3.9l1.176-13.5c0-.024,0-.049,0-.073,0,0,0,0,0-.006h0a.908.908,0,0,0-.548-.832l-.008,0c-.02-.008-.041-.016-.062-.023l-.023-.008-.052-.014-.037-.009-.047-.007-.044-.006H46.64l-.048,0-.032,0H27.974a.908.908,0,0,0,0,1.816h17.6L43.763,91.436v0l-.456,5.236H11.748l.528-5.449h6.009a.908.908,0,1,0,0-1.816H12.452l1.115-11.5H23.13a.908.908,0,0,0,0-1.816H13.743l.524-5.408H24.341a.908.908,0,0,0,0-1.816h-10.9a.908.908,0,0,0-.886.717l0,.009c0,.023-.008.046-.011.069,0,.007,0,.014,0,.022v0l-.62,6.4H.908a.908.908,0,0,0,0,1.816H11.742l-1.115,11.5H7.387a.908.908,0,0,0,0,1.816h3.064l-.607,6.263v0l-.938,9.685v.007c0,.013,0,.025,0,.038s0,.033,0,.05v0c0,.023,0,.046,0,.069,0,.007,0,.015,0,.022,0,.023.006.047.011.07,0,.007,0,.014,0,.02s.008.034.013.051.006.024.009.036l0,.01a.908.908,0,0,0,.216.356l.005.006.03.028a.9.9,0,0,0,.211.144c.016.008.032.016.048.023l.015.006c.023.009.046.018.069.025l.006,0c.027.008.054.015.082.021l.011,0c.026,0,.053.009.08.012h0q.045,0,.089,0h4.044a6.913,6.913,0,0,0,13.707,0H42.129a6.913,6.913,0,0,0,13.707,0h4.046c.03,0,.06,0,.09,0l.016,0c.024,0,.047-.006.07-.011l.029-.007.053-.014.035-.012.044-.016.037-.016.04-.019.036-.02.037-.023.034-.022.036-.027.03-.024.036-.033.025-.024.037-.04.019-.022c.013-.016.025-.033.038-.05l.013-.018c.015-.022.029-.045.042-.068l0,0c.014-.025.026-.051.038-.078l.009-.023c.007-.019.015-.038.021-.057s.007-.026.01-.038.008-.03.012-.046,0-.028.007-.042,0-.024.006-.037c.039-.309.75-6.014,1.067-9.7,0,0,0-.007,0-.011.091-1.064.15-1.959.15-2.507A11.82,11.82,0,0,0,50.193,83.357Zm-4.062,1.817h3.716l-.475,5.449H45.657Zm-25.424,27.2a5.1,5.1,0,1,1,5.1-5.1A5.1,5.1,0,0,1,20.708,112.372Zm28.274,0a5.1,5.1,0,1,1,5.1-5.1A5.1,5.1,0,0,1,48.982,112.372Zm10.1-6.007H55.836a6.913,6.913,0,0,0-13.707,0H27.562a6.913,6.913,0,0,0-13.707,0H10.81l.763-7.872H44.14a.9.9,0,0,0,.09,0l.017,0c.024,0,.047-.006.071-.011l.03-.007.054-.014.035-.012.045-.017.037-.017.04-.019.037-.021.037-.022.034-.024L44.7,98.3l.031-.026.034-.031.027-.027.032-.035.024-.029.029-.039.021-.03.025-.042.018-.032c.008-.014.014-.029.021-.043s.011-.023.016-.035.011-.029.016-.044.009-.026.013-.039.007-.028.011-.043.007-.029.01-.043,0-.029.007-.043,0-.03.006-.045,0,0,0-.006l.455-5.225h4.694c2.783,0,4.038,1.442,5.366,2.968,1.1,1.26,2.32,2.665,4.4,3.008C59.7,101.208,59.269,104.794,59.077,106.364Zm1.038-9.77c-1.35-.275-2.18-1.224-3.186-2.38-1.258-1.445-2.794-3.209-5.738-3.538l.47-5.395a10.005,10.005,0,0,1,8.523,9.882C60.184,95.5,60.158,96,60.115,96.594Z" transform="translate(0 -68.867)"/>
        </g>
      </g>
      <g id="Group_6480" data-name="Group 6480" transform="translate(17.378 103.943)">
        <g id="Group_6479" data-name="Group 6479">
          <path id="Path_6112" data-name="Path 6112" d="M146.838,358.524a3.33,3.33,0,1,0,3.33,3.33A3.334,3.334,0,0,0,146.838,358.524Zm0,4.844a1.514,1.514,0,1,1,1.514-1.514A1.515,1.515,0,0,1,146.838,363.368Z" transform="translate(-143.508 -358.524)"/>
        </g>
      </g>
      <g id="Group_6482" data-name="Group 6482" transform="translate(45.652 103.943)">
        <g id="Group_6481" data-name="Group 6481">
          <path id="Path_6113" data-name="Path 6113" d="M380.326,358.524a3.33,3.33,0,1,0,3.33,3.33A3.334,3.334,0,0,0,380.326,358.524Zm0,4.844a1.514,1.514,0,1,1,1.514-1.514A1.515,1.515,0,0,1,380.326,363.368Z" transform="translate(-376.996 -358.524)"/>
        </g>
      </g>
      <g id="Group_6484" data-name="Group 6484" transform="translate(3.249 83.357)">
        <g id="Group_6483" data-name="Group 6483" transform="translate(0 0)">
          <path id="Path_6114" data-name="Path 6114" d="M32.182,188.527h-4.44a.908.908,0,1,0,0,1.816h4.44a.908.908,0,0,0,0-1.816Z" transform="translate(-26.834 -188.527)"/>
        </g>
      </g>
    </g>
  </g>
</svg>
