<svg xmlns="http://www.w3.org/2000/svg" width="89.327" height="84.304" viewBox="0 0 89.327 84.304">
  <g id="Group_6516" data-name="Group 6516" transform="translate(-435.293 -4021)">
    <path id="Path_49" data-name="Path 49" d="M55.6,7.625C40.911,7.9,30.683.479,23.607.613S1.744,5.091,2.354,37.646,23.045,74.6,30.829,74.458C67.274,73.777,81.6,7.138,55.6,7.625Z" transform="translate(525.85 4039.279) rotate(106)" fill="#fff"/>
    <g id="package" transform="translate(473.382 4009.411)">
      <g id="Group_6476" data-name="Group 6476" transform="translate(0 24.45)">
        <path id="Path_6109" data-name="Path 6109" d="M51.237,30.79c0-.006,0-.011,0-.017,0-.022,0-.044,0-.066s0-.016,0-.024-.007-.04-.011-.059L51.21,30.6c-.006-.021-.012-.042-.02-.062l0-.012L49.15,25.315a1.351,1.351,0,0,0-1.266-.865H44.177a.732.732,0,0,0,0,1.463h3.636l1.62,4.148H34.115l-.96-4.148h5.657a.732.732,0,1,0,0-1.463H9.214a1.351,1.351,0,0,0-1.266.865L5.912,30.527l0,.012c-.008.02-.014.041-.02.062l-.006.023c0,.02-.008.039-.011.059s0,.016,0,.024,0,.044,0,.066c0,.006,0,.011,0,.017V41.541a.732.732,0,1,0,1.463,0V31.524H22.833V42.645a1.107,1.107,0,0,0,1.841.829l3.875-3.433,3.875,3.433a1.107,1.107,0,0,0,1.841-.829V31.524H49.773V64.34a.953.953,0,0,1-.952.952H35.406c0-.008,0-.017,0-.025,0-.066,0-.131-.009-.2a2.633,2.633,0,0,0,3.1-3.566c-.026-.061-.054-.12-.084-.179l-.016-.032q-.044-.083-.093-.163l-.02-.031c-.035-.054-.071-.108-.109-.159l0,0c-.038-.051-.079-.1-.12-.147l-.023-.026q-.062-.069-.129-.133l-.026-.025c-.047-.044-.094-.086-.144-.126l-.005,0c-.049-.039-.1-.077-.151-.112l-.028-.02q-.078-.052-.159-.1l-.013-.008a2.634,2.634,0,0,0-.494-4.317q-.115-.061-.237-.11L25.253,51.168l5.3-1.641a2.4,2.4,0,0,0,1.583-3,2.349,2.349,0,0,0-.8-1.159,2.463,2.463,0,0,0-2.021-.474l-.01,0c-.041.009-4.1.923-8.348,1.75l-.552.107-.427.082-.12.023L19.135,47l-.278.051c-5.33.982-6.827,1-7.242.943h0l-.018,0-.012,0h-.009a.567.567,0,0,1-.062-.014l-.12-.049.149-.366a1.447,1.447,0,0,0-.006-1.115,1.474,1.474,0,0,0-.137-.253,1.446,1.446,0,0,0-.656-.531l-3.93-1.6a1.456,1.456,0,0,0-1.9.8L.107,56.636a1.458,1.458,0,0,0,.8,1.9l3.93,1.6a1.456,1.456,0,0,0,1.9-.8l.036-.089.906.369h0A8.037,8.037,0,0,1,10.034,61.1q.189.171.366.353t.343.376q.083.1.163.2a9.507,9.507,0,0,0,3.818,2.848l1.019.416H8.277a.953.953,0,0,1-.952-.952V62.489a.732.732,0,0,0-1.463,0V64.34a2.418,2.418,0,0,0,2.415,2.415H19.332L28.757,70.6a2.632,2.632,0,0,0,3.611-2.719,2.717,2.717,0,0,0,1.459-.193,2.609,2.609,0,0,0,1.132-.931H48.821a2.418,2.418,0,0,0,2.415-2.415V30.79ZM25.445,25.913h6.209l.96,4.148H24.485Zm-2.462,4.148H7.664l1.62-4.148H23.943ZM32.8,41.854h0l-3.519-3.117a1.108,1.108,0,0,0-1.468,0L24.3,41.854V31.524H32.8ZM5.382,58.779l-3.917-1.6,4.8-11.772,3.917,1.6Zm29.23,4.415-.84-.342h0l-8.745-3.566a.732.732,0,0,0-.552,1.355l8.745,3.566a1.166,1.166,0,0,1,.106.05l.028.017c.024.014.048.027.071.042l.032.023c.02.014.041.029.06.044l.033.03c.017.015.034.03.05.046s.021.023.032.035.03.031.044.048.02.026.03.039.026.033.037.05.018.029.027.044.021.033.031.051.016.032.024.048.018.034.025.051.013.034.02.051.014.034.02.052.01.036.015.054.01.035.015.053.007.037.01.055.007.036.01.055,0,.037,0,.056,0,.037,0,.056,0,.037,0,.055,0,.038,0,.057,0,.036-.006.054,0,.039-.007.058-.007.036-.011.053-.008.039-.013.059-.011.035-.016.052-.012.039-.019.059l-.018.04,0,.009a1.137,1.137,0,0,1-.6.593,1.238,1.238,0,0,1-.953.012l-1.549-.632-.022-.008-.022-.01-7.113-2.9a.732.732,0,0,0-.552,1.355l7.113,2.9.023.008.02.01a1.169,1.169,0,0,1-.883,2.165l-9.556-3.9h0l-4.475-1.825a8.038,8.038,0,0,1-3.229-2.409,9.5,9.5,0,0,0-3.818-2.849h0l-.907-.37L9.13,53.463l1.708-4.188.126.051a1.9,1.9,0,0,0,.743.134,18.969,18.969,0,0,0,3.195-.272c1.146-.162,2.552-.4,4.194-.7l.121-.022.232-.043.183-.034.211-.04.227-.043.184-.035.282-.054.146-.028.442-.086c4.229-.823,8.311-1.738,8.495-1.779l.055-.009a.961.961,0,0,1,1.065.641.938.938,0,0,1-.617,1.17l-7.253,2.245a.732.732,0,0,0-.06,1.376l13.28,5.415a1.17,1.17,0,0,1-.435,2.252h-.007c-.036,0-.071,0-.107,0l-.031,0c-.027,0-.054-.006-.081-.012l-.051-.012c-.02,0-.041-.009-.061-.015s-.041-.014-.061-.022l-.049-.017L26.46,55.765a.732.732,0,0,0-.552,1.355l10.6,4.323a1.176,1.176,0,0,1,.2.108,1.171,1.171,0,0,1,.475,1.307q-.017.055-.039.11a1.178,1.178,0,0,1-.051.108,1.2,1.2,0,0,1-.271.337l-.019.017a1.175,1.175,0,0,1-1.183.179Z" transform="translate(0 -24.45)"/>
      </g>
    </g>
    <path id="Path_6121" data-name="Path 6121" d="M55.6,7.625C40.911,7.9,30.683.479,23.607.613S1.744,5.091,2.354,37.646,23.045,74.6,30.829,74.458C67.274,73.777,81.6,7.138,55.6,7.625Z" transform="translate(525.85 4039.279) rotate(106)" fill="#fff"/>
    <g id="package-2" data-name="package" transform="translate(473.382 4009.411)">
      <g id="Group_6476-2" data-name="Group 6476" transform="translate(0 24.45)">
        <path id="Path_6109-2" data-name="Path 6109" d="M51.237,30.79c0-.006,0-.011,0-.017,0-.022,0-.044,0-.066s0-.016,0-.024-.007-.04-.011-.059L51.21,30.6c-.006-.021-.012-.042-.02-.062l0-.012L49.15,25.315a1.351,1.351,0,0,0-1.266-.865H44.177a.732.732,0,0,0,0,1.463h3.636l1.62,4.148H34.115l-.96-4.148h5.657a.732.732,0,1,0,0-1.463H9.214a1.351,1.351,0,0,0-1.266.865L5.912,30.527l0,.012c-.008.02-.014.041-.02.062l-.006.023c0,.02-.008.039-.011.059s0,.016,0,.024,0,.044,0,.066c0,.006,0,.011,0,.017V41.541a.732.732,0,1,0,1.463,0V31.524H22.833V42.645a1.107,1.107,0,0,0,1.841.829l3.875-3.433,3.875,3.433a1.107,1.107,0,0,0,1.841-.829V31.524H49.773V64.34a.953.953,0,0,1-.952.952H35.406c0-.008,0-.017,0-.025,0-.066,0-.131-.009-.2a2.633,2.633,0,0,0,3.1-3.566c-.026-.061-.054-.12-.084-.179l-.016-.032q-.044-.083-.093-.163l-.02-.031c-.035-.054-.071-.108-.109-.159l0,0c-.038-.051-.079-.1-.12-.147l-.023-.026q-.062-.069-.129-.133l-.026-.025c-.047-.044-.094-.086-.144-.126l-.005,0c-.049-.039-.1-.077-.151-.112l-.028-.02q-.078-.052-.159-.1l-.013-.008a2.634,2.634,0,0,0-.494-4.317q-.115-.061-.237-.11L25.253,51.168l5.3-1.641a2.4,2.4,0,0,0,1.583-3,2.349,2.349,0,0,0-.8-1.159,2.463,2.463,0,0,0-2.021-.474l-.01,0c-.041.009-4.1.923-8.348,1.75l-.552.107-.427.082-.12.023L19.135,47l-.278.051c-5.33.982-6.827,1-7.242.943h0l-.018,0-.012,0h-.009a.567.567,0,0,1-.062-.014l-.12-.049.149-.366a1.447,1.447,0,0,0-.006-1.115,1.474,1.474,0,0,0-.137-.253,1.446,1.446,0,0,0-.656-.531l-3.93-1.6a1.456,1.456,0,0,0-1.9.8L.107,56.636a1.458,1.458,0,0,0,.8,1.9l3.93,1.6a1.456,1.456,0,0,0,1.9-.8l.036-.089.906.369h0A8.037,8.037,0,0,1,10.034,61.1q.189.171.366.353t.343.376q.083.1.163.2a9.507,9.507,0,0,0,3.818,2.848l1.019.416H8.277a.953.953,0,0,1-.952-.952V62.489a.732.732,0,0,0-1.463,0V64.34a2.418,2.418,0,0,0,2.415,2.415H19.332L28.757,70.6a2.632,2.632,0,0,0,3.611-2.719,2.717,2.717,0,0,0,1.459-.193,2.609,2.609,0,0,0,1.132-.931H48.821a2.418,2.418,0,0,0,2.415-2.415V30.79ZM25.445,25.913h6.209l.96,4.148H24.485Zm-2.462,4.148H7.664l1.62-4.148H23.943ZM32.8,41.854h0l-3.519-3.117a1.108,1.108,0,0,0-1.468,0L24.3,41.854V31.524H32.8ZM5.382,58.779l-3.917-1.6,4.8-11.772,3.917,1.6Zm29.23,4.415-.84-.342h0l-8.745-3.566a.732.732,0,0,0-.552,1.355l8.745,3.566a1.166,1.166,0,0,1,.106.05l.028.017c.024.014.048.027.071.042l.032.023c.02.014.041.029.06.044l.033.03c.017.015.034.03.05.046s.021.023.032.035.03.031.044.048.02.026.03.039.026.033.037.05.018.029.027.044.021.033.031.051.016.032.024.048.018.034.025.051.013.034.02.051.014.034.02.052.01.036.015.054.01.035.015.053.007.037.01.055.007.036.01.055,0,.037,0,.056,0,.037,0,.056,0,.037,0,.055,0,.038,0,.057,0,.036-.006.054,0,.039-.007.058-.007.036-.011.053-.008.039-.013.059-.011.035-.016.052-.012.039-.019.059l-.018.04,0,.009a1.137,1.137,0,0,1-.6.593,1.238,1.238,0,0,1-.953.012l-1.549-.632-.022-.008-.022-.01-7.113-2.9a.732.732,0,0,0-.552,1.355l7.113,2.9.023.008.02.01a1.169,1.169,0,0,1-.883,2.165l-9.556-3.9h0l-4.475-1.825a8.038,8.038,0,0,1-3.229-2.409,9.5,9.5,0,0,0-3.818-2.849h0l-.907-.37L9.13,53.463l1.708-4.188.126.051a1.9,1.9,0,0,0,.743.134,18.969,18.969,0,0,0,3.195-.272c1.146-.162,2.552-.4,4.194-.7l.121-.022.232-.043.183-.034.211-.04.227-.043.184-.035.282-.054.146-.028.442-.086c4.229-.823,8.311-1.738,8.495-1.779l.055-.009a.961.961,0,0,1,1.065.641.938.938,0,0,1-.617,1.17l-7.253,2.245a.732.732,0,0,0-.06,1.376l13.28,5.415a1.17,1.17,0,0,1-.435,2.252h-.007c-.036,0-.071,0-.107,0l-.031,0c-.027,0-.054-.006-.081-.012l-.051-.012c-.02,0-.041-.009-.061-.015s-.041-.014-.061-.022l-.049-.017L26.46,55.765a.732.732,0,0,0-.552,1.355l10.6,4.323a1.176,1.176,0,0,1,.2.108,1.171,1.171,0,0,1,.475,1.307q-.017.055-.039.11a1.178,1.178,0,0,1-.051.108,1.2,1.2,0,0,1-.271.337l-.019.017a1.175,1.175,0,0,1-1.183.179Z" transform="translate(0 -24.45)"/>
      </g>
    </g>
  </g>
</svg>
