<svg xmlns="http://www.w3.org/2000/svg" width="87.909" height="78.089" viewBox="0 0 87.909 78.089">
  <g id="Group_6518" data-name="Group 6518" transform="translate(-1186.091 -4028.26)">
    <path id="Path_6115" data-name="Path 6115" d="M50.17,6.91C36.982,7.156,27.8.493,21.441.613S1.8,4.635,2.352,33.874,20.935,67.066,27.927,66.936C60.66,66.324,73.529,6.473,50.17,6.91Z" transform="matrix(-0.326, 0.946, -0.946, -0.326, 1269.597, 4047.845)" fill="#fff"/>
    <g id="XMLID_779_" transform="translate(1182.643 4030.339)">
      <g id="XMLID_484_" transform="translate(44.532)">
        <path id="XMLID_581_" d="M85.835,119.9H64.728a6.387,6.387,0,1,0-9.635,0H50.054a5.528,5.528,0,0,0-5.522,5.522v6.516a1.1,1.1,0,1,0,2.209,0v-6.516a3.317,3.317,0,0,1,3.313-3.313H80.976a3.317,3.317,0,0,1,3.313,3.313v5.964H72.8a5.522,5.522,0,0,0,0,11.044H84.289v5.964a3.317,3.317,0,0,1-3.313,3.313H50.054a3.317,3.317,0,0,1-3.313-3.313V141.87a1.1,1.1,0,1,0-2.209,0v6.524a5.528,5.528,0,0,0,5.522,5.522H85.835a5.528,5.528,0,0,0,5.522-5.522V125.423A5.528,5.528,0,0,0,85.835,119.9ZM59.91,111.538a4.178,4.178,0,1,1-4.178,4.178A4.183,4.183,0,0,1,59.91,111.538Zm25.48,10.572h.445a3.317,3.317,0,0,1,3.313,3.313v5.964H86.5v-5.964A5.493,5.493,0,0,0,85.391,122.11Zm-15.9,14.8A3.317,3.317,0,0,1,72.8,133.6H89.148v6.626H72.8A3.317,3.317,0,0,1,69.491,136.909Zm16.345,14.8h-.445a5.493,5.493,0,0,0,1.107-3.313v-5.964h2.65v5.964A3.317,3.317,0,0,1,85.835,151.707Z" transform="translate(-44.532 -97.255)"/>
        <path id="XMLID_1260_" d="M289.076,349.062a1.1,1.1,0,1,0,.781.324A1.113,1.113,0,0,0,289.076,349.062Z" transform="translate(-261.087 -310.513)"/>
        <path id="XMLID_1711_" d="M277.838,34.77a6.387,6.387,0,1,0-6.387-6.387A6.394,6.394,0,0,0,277.838,34.77Zm0-10.565a4.178,4.178,0,1,1-4.178,4.178A4.183,4.183,0,0,1,277.838,24.2Z" transform="translate(-246.391 -19.567)"/>
        <path id="XMLID_1712_" d="M222.717,10.887a1.1,1.1,0,0,0,1.1-1.1V1.1a1.1,1.1,0,1,0-2.209,0V9.783A1.1,1.1,0,0,0,222.717,10.887Z" transform="translate(-202.057)"/>
        <path id="XMLID_1757_" d="M174.717,7.068a1.1,1.1,0,0,0,1.1-1.1V1.1a1.1,1.1,0,1,0-2.209,0V5.964A1.1,1.1,0,0,0,174.717,7.068Z" transform="translate(-159.358)"/>
        <path id="XMLID_1760_" d="M45.636,351.271a1.1,1.1,0,1,0-.781-.324A1.113,1.113,0,0,0,45.636,351.271Z" transform="translate(-44.532 -310.513)"/>
      </g>
    </g>
  </g>
</svg>
