<svg xmlns="http://www.w3.org/2000/svg" xmlns:xlink="http://www.w3.org/1999/xlink" width="40" height="40" viewBox="0 0 40 40"><defs><linearGradient id="a" x1="0.5" x2="0.5" y2="1" gradientUnits="objectBoundingBox"><stop offset="0" stop-color="#ff3a3a"/><stop offset="1" stop-color="#f55343"/></linearGradient></defs><g transform="translate(-17 -12)"><circle cx="20" cy="20" r="20" transform="translate(17 12)" fill="#fff"/><g transform="translate(5.865 11.811)"><rect width="22" height="21" rx="3" transform="translate(20.135 12.189)" fill="url(#a)"/><path d="M119.358,12.59a.651.651,0,0,1-.637-.665V7.24a5.663,5.663,0,1,0-11.315,0v4.685a.637.637,0,1,1-1.273,0V7.24a6.937,6.937,0,1,1,13.862,0v4.685A.651.651,0,0,1,119.358,12.59Zm0,0" transform="translate(-81.706 3.198)" fill="#333"/><text transform="translate(24.384 26.108)" fill="#fff" stroke="#fff" stroke-width="0.7" font-size="14" font-family="SegoeUI, Segoe UI" letter-spacing="0.05em"><tspan x="0" y="0">t</tspan></text><text transform="translate(40.256 26.189)" fill="#fff" stroke="#fff" stroke-width="0.7" font-size="15" font-family="SegoeUI, Segoe UI" letter-spacing="0.05em"><tspan x="-12.92" y="0">m</tspan></text></g></g></svg>