<svg xmlns="http://www.w3.org/2000/svg" width="12.11" height="12.11" viewBox="0 0 12.11 12.11"><g transform="translate(-933.945 -302.945)"><g transform="translate(922.945 291.945)"><g transform="translate(11 11)"><path d="M22.606,319a.5.5,0,0,0-.5.5v2.983H12.008V319.5a.5.5,0,0,0-1.008,0v3.49a.5.5,0,0,0,.5.5h11.1a.5.5,0,0,0,.5-.5V319.5A.5.5,0,0,0,22.606,319Z" transform="translate(-11 -311.388)" fill="#fff"/><path d="M112.26,14.93l2.209-2.207v6.4a.5.5,0,1,0,1.008,0v-6.4l2.209,2.207a.505.505,0,0,0,.714-.714l-3.072-3.067a.5.5,0,0,0-.714,0l-3.067,3.067a.5.5,0,0,0,.712.714Z" transform="translate(-108.919 -11)" fill="#fff"/></g></g></g></svg>