<svg xmlns="http://www.w3.org/2000/svg" width="17" height="17" viewBox="0 0 17 17">
  <g id="Group_5" data-name="Group 5" transform="translate(-313 -189)">
    <circle id="Ellipse_1" data-name="Ellipse 1" cx="8.5" cy="8.5" r="8.5" transform="translate(313 189)" fill="#1877f2"/>
    <g id="like_2_" data-name="like (2)" transform="translate(317.35 192.883)">
      <g id="Group_2" data-name="Group 2" transform="translate(0 3.626)">
        <g id="Group_1" data-name="Group 1">
          <path id="Path_6395" data-name="Path 6395" d="M.906,224a.908.908,0,0,0-.906.906v2.9a.908.908,0,0,0,.906.906H1.994a.9.9,0,0,0,.544-.183V224Z" transform="translate(0 -224)" fill="#fff"/>
        </g>
      </g>
      <g id="Group_4" data-name="Group 4" transform="translate(2.901 0)">
        <g id="Group_3" data-name="Group 3">
          <path id="Path_6396" data-name="Path 6396" d="M176.468,15.653a.8.8,0,0,0-.236-.571.9.9,0,0,0,.232-.692.937.937,0,0,0-.946-.822h-2.24a5.214,5.214,0,0,0,.289-1.45,1.482,1.482,0,0,0-1.088-1.45,1.14,1.14,0,0,0-.657.221.182.182,0,0,0-.068.142v1.23l-1.044,2.262-.044.022V18.43a2.375,2.375,0,0,0,.906.214H174.9a.834.834,0,0,0,.822-.633.816.816,0,0,0-.066-.545.812.812,0,0,0,.363-1.088A.812.812,0,0,0,176.468,15.653Z" transform="translate(-170.667 -10.667)" fill="#fff"/>
        </g>
      </g>
    </g>
  </g>
</svg>
