<svg xmlns="http://www.w3.org/2000/svg" width="17.611" height="16.886" viewBox="0 0 17.611 16.886"><g transform="translate(0.1 -10.567)"><path d="M5.441,233.431H.363A.363.363,0,0,1,0,233.068v-8.705A.363.363,0,0,1,.363,224H5.441a.363.363,0,0,1,.363.363v8.705A.363.363,0,0,1,5.441,233.431Zm-4.715-.725H5.078v-7.98H.725v7.98Z" transform="translate(0 -206.078)" fill="#90949c" stroke="#90949c" stroke-width="0.2"/><path d="M158.583,26.627h-6.71a4.071,4.071,0,0,1-2.433-.831.363.363,0,0,1-.106-.257V19.01a.363.363,0,0,1,.2-.324l.612-.306,2.09-4.527v-2.46a.363.363,0,0,1,.136-.284,2.276,2.276,0,0,1,1.315-.442c.839,0,2.176,1.328,2.176,2.9a10.45,10.45,0,0,1-.58,2.9h4.57a1.814,1.814,0,0,1,1.814,1.814,1.792,1.792,0,0,1-.472,1.216,1.622,1.622,0,0,1-.424,2.594,1.607,1.607,0,0,1,.17.725,1.626,1.626,0,0,1-.9,1.451,1.606,1.606,0,0,1,.171.725A1.634,1.634,0,0,1,158.583,26.627Zm-8.524-1.254a3.737,3.737,0,0,0,1.814.529h6.71a.908.908,0,0,0,.907-.907.9.9,0,0,0-.287-.657.363.363,0,0,1,.207-.625.9.9,0,0,0,.518-1.552.363.363,0,0,1,.207-.625.9.9,0,0,0,.307-1.7.363.363,0,0,1-.024-.631,1.088,1.088,0,0,0-.567-2.012h-5.078a.363.363,0,0,1-.339-.492,11.28,11.28,0,0,0,.7-3.135,2.4,2.4,0,0,0-1.451-2.176,1.528,1.528,0,0,0-.725.2v2.342a.366.366,0,0,1-.033.152L150.751,18.8a.363.363,0,0,1-.167.172l-.525.263Z" transform="translate(-144.255 0)" fill="#90949c" stroke="#90949c" stroke-width="0.2"/></g></svg>