<svg xmlns="http://www.w3.org/2000/svg" width="43.001" height="43.001" viewBox="0 0 43.001 43.001"><g transform="translate(0)"><path d="M39.606,28.313a24.563,24.563,0,0,1-7.713-1.227,3.309,3.309,0,0,0-3.356.711l-4.884,3.685A27.276,27.276,0,0,1,11.518,19.348L15.1,14.582a3.424,3.424,0,0,0,.84-3.463,24.59,24.59,0,0,1-1.233-7.724A3.4,3.4,0,0,0,11.316,0H3.395A3.4,3.4,0,0,0,0,3.395,39.651,39.651,0,0,0,39.606,43,3.4,3.4,0,0,0,43,39.606v-7.9A3.4,3.4,0,0,0,39.606,28.313Z" transform="translate(0)" fill="#fff"/><g transform="translate(24.895)"><path d="M251.64,18.106a1.132,1.132,0,0,1-1.132-1.132A14.729,14.729,0,0,0,235.8,2.263,1.132,1.132,0,1,1,235.8,0a16.992,16.992,0,0,1,16.974,16.974A1.132,1.132,0,0,1,251.64,18.106Z" transform="translate(-234.666)" fill="#fff"/><path d="M242.587,94.386a1.132,1.132,0,0,1-1.132-1.132A5.658,5.658,0,0,0,235.8,87.6a1.132,1.132,0,1,1,0-2.263,7.921,7.921,0,0,1,7.921,7.921A1.132,1.132,0,0,1,242.587,94.386Z" transform="translate(-234.666 -76.28)" fill="#fff"/></g></g></svg>