<svg xmlns="http://www.w3.org/2000/svg" width="18.186" height="18.184" viewBox="0 0 18.186 18.184"><g transform="translate(0 -0.016)"><g transform="translate(0 0.016)"><path d="M11.1,9.108l6.8-6.8A1,1,0,0,0,17.9.9l-.6-.6a1,1,0,0,0-1.407,0l-6.8,6.8-6.8-6.8a1,1,0,0,0-1.406,0l-.6.6a1,1,0,0,0,0,1.406l6.8,6.8-6.8,6.8a1,1,0,0,0,0,1.407l.6.6a1,1,0,0,0,1.406,0l6.8-6.8,6.8,6.8a.987.987,0,0,0,.7.29h0a.987.987,0,0,0,.7-.29l.6-.6a1,1,0,0,0,0-1.407Z" transform="translate(0 -0.016)" fill="#fff"/></g></g></svg>