<svg xmlns="http://www.w3.org/2000/svg" width="14.953" height="18.404" viewBox="0 0 14.953 18.404">
  <g id="trash" transform="translate(-48)">
    <path id="Path_6126" data-name="Path 6126" d="M61.516,2.3H58.352V1.725A1.727,1.727,0,0,0,56.627,0h-2.3A1.727,1.727,0,0,0,52.6,1.725V2.3H49.438A1.439,1.439,0,0,0,48,3.738V5.751a.575.575,0,0,0,.575.575h.314l.5,10.434A1.723,1.723,0,0,0,51.11,18.4h8.734a1.723,1.723,0,0,0,1.723-1.643l.5-10.434h.314a.575.575,0,0,0,.575-.575V3.738A1.439,1.439,0,0,0,61.516,2.3Zm-7.764-.575a.576.576,0,0,1,.575-.575h2.3a.576.576,0,0,1,.575.575V2.3H53.751Zm-4.6,2.013a.288.288,0,0,1,.288-.288H61.516a.288.288,0,0,1,.288.288V5.176H49.15ZM60.418,16.706a.574.574,0,0,1-.574.548H51.11a.574.574,0,0,1-.574-.548l-.494-10.38H60.913Z" fill="#333"/>
    <path id="Path_6127" data-name="Path 6127" d="M240.575,216.627a.575.575,0,0,0,.575-.575v-7.477a.575.575,0,1,0-1.15,0v7.477A.575.575,0,0,0,240.575,216.627Z" transform="translate(-185.098 -200.523)" fill="#333"/>
    <path id="Path_6128" data-name="Path 6128" d="M320.575,216.627a.575.575,0,0,0,.575-.575v-7.477a.575.575,0,1,0-1.15,0v7.477A.575.575,0,0,0,320.575,216.627Z" transform="translate(-262.223 -200.523)" fill="#333"/>
    <path id="Path_6129" data-name="Path 6129" d="M160.575,216.627a.575.575,0,0,0,.575-.575v-7.477a.575.575,0,1,0-1.15,0v7.477A.575.575,0,0,0,160.575,216.627Z" transform="translate(-107.974 -200.523)" fill="#333"/>
  </g>
</svg>
